<?xml version="1.0" encoding="utf-8"?>
<!-- Generator: Adobe Illustrator 21.0.0, SVG Export Plug-In . SVG Version: 6.00 Build 0)  -->
<svg version="1.1" id="Layer_1" xmlns="http://www.w3.org/2000/svg" xmlns:xlink="http://www.w3.org/1999/xlink" x="0px" y="0px"
	 viewBox="0 0 100 100" style="enable-background:new 0 0 100 100;" xml:space="preserve">
<style type="text/css">
	.st0{fill:#999999;}
</style>
<g>
	<g>
		<path class="st0" d="M66.3,64.6L79,92.2c1.4,3.1,6.1,2.1,6.1-1.3V79.1h11.7c3.4,0,4.4-4.7,1.3-6.1L70.5,60.3
			C67.8,59.1,65.1,61.9,66.3,64.6z"/>
	</g>
	<path class="st0" d="M48.1,2C21.4,2-0.3,23.7-0.3,50.4c0,36.6,39,59.4,70.4,43.1c5.1-2.5,1.3-10.3-3.9-7.6
		C40.5,98.7,11,81.4,8.5,54.2h24.6c1.7,6.7,7.7,11.6,14.9,11.6c8.5,0,15.4-6.9,15.4-15.4S56.6,35,48,35c-7.3,0-13.4,5.1-15,11.9H8.5
		c1.8-20.3,18.9-36.3,39.6-36.3c26.4,0,44.7,25.3,38.7,48.7c-1.2,5.6,7.1,7.4,8.5,1.9C102,29.1,77.8,2,48.1,2z"/>
</g>
</svg>
