<?xml version="1.0" encoding="utf-8"?>
<!-- Generator: Adobe Illustrator 21.0.0, SVG Export Plug-In . SVG Version: 6.00 Build 0)  -->
<svg version="1.1" id="Layer_1" xmlns="http://www.w3.org/2000/svg" xmlns:xlink="http://www.w3.org/1999/xlink" x="0px" y="0px"
	 viewBox="0 0 100 100" style="enable-background:new 0 0 100 100;" xml:space="preserve">
<style type="text/css">
	.st0{fill:#999999;}
</style>
<g>
	<g>
		<path class="st0" d="M19.2,32.9C8.6,32.9,0,41.5,0,52.1s8.6,19.2,19.2,19.2s19.2-8.6,19.2-19.2S29.8,32.9,19.2,32.9z M19.2,62.8
			c-5.9,0-10.7-4.8-10.7-10.7c0-5.9,4.8-10.7,10.7-10.7c5.9,0,10.7,4.8,10.7,10.7C29.9,58,25.1,62.8,19.2,62.8z"/>
	</g>
	<g>
		<path class="st0" d="M49.6,6.3c-7.4,0-13.3,6-13.3,13.3s6,13.3,13.3,13.3s13.3-6,13.3-13.3S57,6.3,49.6,6.3z M49.6,27
			c-4.1,0-7.4-3.3-7.4-7.4c0-4.1,3.3-7.4,7.4-7.4c4.1,0,7.4,3.3,7.4,7.4C57,23.7,53.7,27,49.6,27z"/>
	</g>
	<g>
		<path class="st0" d="M72,38.3c-15.5,0-28,12.5-28,28s12.5,28,28,28s28-12.5,28-28S87.5,38.3,72,38.3z"/>
	</g>
</g>
</svg>
