<?xml version="1.0" encoding="utf-8"?>
<!-- Generator: Adobe Illustrator 21.0.0, SVG Export Plug-In . SVG Version: 6.00 Build 0)  -->
<svg version="1.1" id="Layer_1" xmlns="http://www.w3.org/2000/svg" xmlns:xlink="http://www.w3.org/1999/xlink" x="0px" y="0px"
	 viewBox="0 0 100 100" style="enable-background:new 0 0 100 100;" xml:space="preserve">

<g>
	<g>
		<path class="st0" d="M31.2,93.8H20c-1.5,0-2.9-1-3.4-2.5L0.2,40.7c-0.5-1.5,0-3.1,1.3-4L44.5,5.5c1.2-0.9,2.9-0.9,4.2,0l29.1,21.3
			c1.6,1.2,1.9,3.4,0.8,5c-1.2,1.6-3.4,1.9-5,0.8l-27-19.8L7.7,41l14.9,45.7h8.6c2,0,3.5,1.6,3.5,3.5C34.7,92.2,33.1,93.8,31.2,93.8
			z"/>
	</g>
	<g>
		<g>
			<path class="st0" d="M91.7,55.5c0.5,0.5,1.3,0.5,1.8,0l5-5c2-2,2-5.3,0-7.3L92,36.7c-2-2-5.3-2-7.3,0l-5,5
				c-0.5,0.5-0.5,1.3,0,1.8L91.7,55.5z"/>
		</g>
		<g>
			<path class="st0" d="M47.8,90.3l12.3-1.4l29.2-29.2c0.5-0.5,0.5-1.3,0-1.8L77.4,46c-0.5-0.5-1.4-0.5-1.9,0h0L46.3,75.1L45,87.4
				C44.8,89.1,46.2,90.5,47.8,90.3z"/>
		</g>
	</g>
</g>
</svg>
