<?xml version="1.0" encoding="UTF-8"?>
<svg width="150px" height="38px" viewBox="0 0 150 38" version="1.1" xmlns="http://www.w3.org/2000/svg" xmlns:xlink="http://www.w3.org/1999/xlink">
    <!-- Generator: Sketch 46.2 (44496) - http://www.bohemiancoding.com/sketch -->
    <title>logo_geoworks@2x</title>
    <desc>Created with Sketch.</desc>
    <defs></defs>
    <g id="Page-1" stroke="none" stroke-width="1" fill="none" fill-rule="evenodd">
        <g id="04---01-Login" transform="translate(-645.000000, -721.000000)" fill-rule="nonzero" fill="#9B9B9B">
            <g id="Card" transform="translate(570.000000, 266.000000)">
                <g id="logo_geoworks" transform="translate(75.000000, 455.000000)">
                    <g id="Group">
                        <g id="Shape">
                            <path d="M6.11587983,9.59661017 C6.43776824,9.53220339 6.82403433,9.53220339 7.08154506,9.53220339 C7.85407725,9.59661017 8.49785408,10.3050847 8.43347639,11.0779661 C8.36909871,11.9152542 7.78969957,12.4305085 6.9527897,12.4949153 C5.34334764,12.559322 3.92703863,13.1389831 2.70386266,14.2338983 C1.60944206,15.2644068 0.901287554,16.5525424 0.708154506,18.0338983 C0.386266094,20.2881356 1.03004292,22.220339 2.76824034,23.7661017 C3.6695279,24.6677966 4.89270386,25.2474576 6.11587983,25.440678 C7.85407725,25.7627119 9.46351931,25.2474576 10.8798283,24.1525424 C11.9742489,23.3152542 12.6824034,22.220339 13.0686695,20.8677966 C13.0686695,20.8033898 13.0686695,20.8033898 13.1330472,20.7389831 C13.0686695,20.7389831 13.0042918,20.7389831 13.0042918,20.7389831 C10.944206,20.7389831 9.01287554,20.7389831 6.9527897,20.7389831 C6.24463519,20.7389831 5.60085837,20.2237288 5.472103,19.5152542 C5.27896996,18.6135593 5.98712446,17.7762712 6.9527897,17.7762712 C8.94849785,17.7762712 10.8798283,17.7762712 12.8755365,17.7762712 C12.9399142,17.7762712 12.9399142,17.7762712 13.0042918,17.7762712 C13.0042918,17.7118644 13.0042918,17.7118644 12.9399142,17.7118644 C11.7811159,15.6508475 10.6223176,13.7186441 9.46351931,11.6576271 C9.1416309,11.2067797 9.1416309,10.6915254 9.46351931,10.1762712 C9.78540773,9.72542373 10.2360515,9.40338983 10.751073,9.46779661 C11.2660944,9.46779661 11.7167382,9.78983051 11.9742489,10.240678 C12.6824034,11.4 13.3905579,12.6237288 14.0343348,13.7830508 C15.9012876,17.0033898 17.7682403,20.2237288 19.6351931,23.4440678 L19.6995708,23.5084746 C19.8927039,23.2508475 20.0214592,22.9932203 20.1502146,22.7355932 C20.9871245,21.3830508 21.695279,20.0305085 22.5321888,18.7423729 C22.5965665,18.6779661 22.5965665,18.6135593 22.5321888,18.5491525 C21.2446352,16.359322 19.9570815,14.1050847 18.6695279,11.9152542 C18.1545064,11.0135593 18.6051502,9.98305085 19.5708155,9.78983051 C20.1502146,9.66101695 20.8583691,9.91864407 21.1158798,10.4983051 C21.9527897,11.8508475 22.6609442,13.2677966 23.4978541,14.5559322 C23.7553648,14.9423729 23.9484979,15.3932203 24.2060086,15.779661 C24.4635193,15.4576271 24.5922747,15.0711864 24.8497854,14.7491525 C25.751073,13.2033898 26.6523605,11.7220339 27.5536481,10.1762712 C27.9399142,9.46779661 28.8412017,9.27457627 29.5493562,9.66101695 C30.2575107,10.0474576 30.4506438,10.9491525 30.0643777,11.6576271 C29.1630901,13.1389831 28.3261803,14.5559322 27.4248927,16.0372881 C26.9742489,16.8745763 26.4592275,17.6474576 25.944206,18.5491525 C25.8798283,18.6135593 25.8798283,18.6779661 25.944206,18.8067797 C26.8454936,20.4169492 27.8755365,22.1559322 28.776824,23.7661017 L28.8412017,23.8305085 C28.9055794,23.7661017 28.9055794,23.7016949 28.9055794,23.7016949 C31.0300429,20.159322 33.1545064,16.6169492 35.27897,13.0745763 C35.472103,12.7525424 35.6008584,12.4949153 35.7939914,12.1728814 C33.3476395,5.15254237 26.4592275,0.0644067797 18.3476395,0.0644067797 C10.3004292,0.0644067797 3.47639485,5.08813559 0.708154506,12.1728814 C1.41630901,11.5288136 2.1888412,10.9491525 3.02575107,10.5627119 C3.99141631,10.0474576 5.02145923,9.72542373 6.11587983,9.59661017 Z"></path>
                            <path d="M30.5793991,27.2440678 C30.5150215,27.3084746 30.4506438,27.3728814 30.4506438,27.5016949 C30.193133,28.0813559 29.806867,28.4033898 29.1630901,28.4033898 C28.583691,28.4677966 28.1330472,28.1457627 27.7467811,27.6305085 C26.6523605,25.6983051 25.5579399,23.7661017 24.3991416,21.8338983 C24.3991416,21.7694915 24.3347639,21.7694915 24.3347639,21.7050847 C24.2703863,21.7694915 24.2703863,21.8338983 24.2060086,21.8983051 C23.2403433,23.5728814 22.1459227,25.2474576 21.1802575,26.9864407 C21.1158798,27.0508475 21.1158798,27.1152542 21.1158798,27.179661 C20.8583691,27.6949153 20.472103,28.0169492 19.8927039,28.0813559 C19.248927,28.1457627 18.7982833,27.8881356 18.4763948,27.3084746 C17.5751073,25.7627119 16.6738197,24.2169492 15.7725322,22.6711864 C15.7081545,22.6067797 15.7081545,22.5423729 15.6437768,22.4779661 C15.5150215,22.7355932 15.3862661,22.9932203 15.3218884,23.2508475 C14.9356223,24.1525424 14.3562232,24.8610169 13.7124464,25.5694915 C12.6824034,26.6644068 11.3948498,27.5016949 9.91416309,27.9525424 C9.1416309,28.2101695 8.36909871,28.3389831 7.66094421,28.4033898 C7.33905579,28.4033898 7.01716738,28.4677966 6.75965665,28.4033898 C5.472103,28.3389831 4.24892704,28.0813559 3.15450644,27.5016949 C2.1888412,27.0508475 1.35193133,26.4711864 0.579399142,25.7627119 C3.34763948,32.9118644 10.1716738,38 18.2832618,38 C28.7124464,38 37.2103004,29.4983051 37.2103004,19.0644068 C37.2103004,18.1627119 37.1459227,17.1966102 37.0171674,16.2949153 C35.472103,18.8711864 33.9270386,21.4474576 32.4463519,24.0237288 C31.8025751,25.0542373 31.1587983,26.1491525 30.5793991,27.2440678 Z"></path>
                        </g>
                        <path d="M40.944206,11.7220339 C40.944206,12.6237288 40.1716738,13.3966102 39.2703863,13.3966102 C38.3690987,13.3966102 37.5321888,12.6237288 37.5321888,11.7220339 C37.5321888,10.820339 38.304721,10.0474576 39.2703863,10.0474576 C40.1716738,10.0474576 40.944206,10.7559322 40.944206,11.7220339 Z M37.9184549,11.7220339 C37.9184549,12.4949153 38.4334764,13.0745763 39.2060086,13.0745763 C39.9785408,13.0745763 40.4935622,12.4949153 40.4935622,11.7220339 C40.4935622,10.9491525 39.9785408,10.3694915 39.2060086,10.3694915 C38.4334764,10.3694915 37.9184549,10.9491525 37.9184549,11.7220339 Z M38.9484979,12.6237288 L38.5622318,12.6237288 L38.5622318,10.9491525 C38.7553648,10.8847458 38.8841202,10.8847458 39.2060086,10.8847458 C39.527897,10.8847458 39.6566524,10.9491525 39.7854077,11.0135593 C39.9141631,11.0779661 39.9785408,11.2711864 39.9785408,11.3355932 C39.9785408,11.5288136 39.8497854,11.6576271 39.6566524,11.7220339 L39.6566524,11.7220339 C39.8497854,11.7864407 39.9141631,11.9152542 39.9785408,12.1084746 C40.0429185,12.3661017 40.0429185,12.4305085 40.1072961,12.4949153 L39.72103,12.4949153 C39.6566524,12.4305085 39.6566524,12.2372881 39.5922747,12.1084746 C39.527897,11.9152542 39.4635193,11.7864407 39.2703863,11.7864407 L39.0772532,11.7864407 C38.9484979,11.8508475 38.9484979,12.6237288 38.9484979,12.6237288 Z M38.9484979,11.6576271 L39.1416309,11.6576271 C39.3991416,11.6576271 39.527897,11.5932203 39.527897,11.4 C39.527897,11.2067797 39.3991416,11.1423729 39.2060086,11.1423729 C39.0772532,11.1423729 39.0128755,11.1423729 38.9484979,11.1423729 L38.9484979,11.6576271 L38.9484979,11.6576271 Z" id="Shape"></path>
                        <g transform="translate(43.133047, 12.237288)">
                            <path d="M0.25751073,6.69830508 L0.25751073,6.69830508 C0.25751073,3.1559322 2.96137339,0.193220339 6.69527897,0.193220339 C8.81974249,0.193220339 10.1716738,0.772881356 11.5236052,1.86779661 L10.0429185,3.54237288 C9.07725322,2.70508475 8.11158798,2.18983051 6.56652361,2.18983051 C4.24892704,2.18983051 2.51072961,4.25084746 2.51072961,6.63389831 L2.51072961,6.69830508 C2.51072961,9.27457627 4.18454936,11.2067797 6.75965665,11.2067797 C7.91845494,11.2067797 9.01287554,10.8847458 9.78540773,10.3050847 L9.78540773,7.98644068 L6.56652361,7.98644068 L6.56652361,6.05423729 L11.8454936,6.05423729 L11.8454936,11.2711864 C10.6223176,12.3016949 8.81974249,13.2033898 6.63090129,13.2033898 C2.83261803,13.1389831 0.25751073,10.3694915 0.25751073,6.69830508 Z" id="Shape"></path>
                            <path d="M24.72103,6.69830508 L24.72103,6.69830508 C24.72103,3.1559322 27.4892704,0.193220339 31.2875536,0.193220339 C35.1502146,0.193220339 37.7896996,3.09152542 37.7896996,6.56949153 L37.7896996,6.63389831 C37.7896996,10.1118644 35.0214592,13.0745763 31.223176,13.0745763 C27.360515,13.1389831 24.72103,10.240678 24.72103,6.69830508 Z M35.472103,6.69830508 L35.472103,6.69830508 C35.472103,4.25084746 33.7339056,2.18983051 31.223176,2.18983051 C28.7124464,2.18983051 27.0386266,4.18644068 27.0386266,6.63389831 L27.0386266,6.69830508 C27.0386266,9.14576271 28.776824,11.1423729 31.2875536,11.1423729 C33.7339056,11.1423729 35.472103,9.14576271 35.472103,6.69830508 Z" id="Shape"></path>
                            <polygon id="Shape" points="39.72103 0.386440678 40.751073 0.386440678 44.6781116 11.5288136 48.3476395 0.322033898 49.055794 0.322033898 52.7253219 11.5288136 56.6523605 0.386440678 57.6180258 0.386440678 53.0472103 13.0101695 52.2746781 13.0101695 48.6051502 2.12542373 44.9356223 13.0101695 44.1630901 13.0101695"></polygon>
                            <path d="M59.2274678,6.69830508 L59.2274678,6.69830508 C59.2274678,3.28474576 61.7381974,0.193220339 65.5364807,0.193220339 C69.3347639,0.193220339 71.8454936,3.22033898 71.8454936,6.56949153 L71.8454936,6.63389831 C71.8454936,10.0474576 69.3347639,13.0745763 65.5364807,13.0745763 C61.6738197,13.1389831 59.2274678,10.1118644 59.2274678,6.69830508 Z M70.8154506,6.69830508 L70.8154506,6.69830508 C70.8154506,3.54237288 68.5622318,1.03050847 65.472103,1.03050847 C62.3819742,1.03050847 60.193133,3.54237288 60.193133,6.63389831 L60.193133,6.69830508 C60.193133,9.78983051 62.4463519,12.3661017 65.5364807,12.3661017 C68.6266094,12.3016949 70.8154506,9.78983051 70.8154506,6.69830508 Z" id="Shape"></path>
                            <polygon id="Shape" points="85.8154506 0.386440678 86.7167382 0.386440678 86.7167382 8.63050847 94.6995708 0.386440678 95.9871245 0.386440678 90.5150215 5.92542373 96.2446352 12.9457627 95.0214592 12.9457627 89.8712446 6.56949153 86.7811159 9.72542373 86.7811159 12.9457627 85.8798283 12.9457627"></polygon>
                            <path d="M97.5965665,11.1423729 L98.1759657,10.4338983 C99.5922747,11.7220339 100.815451,12.3016949 102.682403,12.3016949 C104.549356,12.3016949 105.83691,11.2711864 105.83691,9.78983051 L105.83691,9.72542373 C105.83691,8.37288136 105.128755,7.6 102.296137,7.02033898 C99.2703863,6.44067797 98.111588,5.41016949 98.111588,3.54237288 L98.111588,3.54237288 C98.111588,1.67457627 99.7854077,0.257627119 102.103004,0.257627119 C103.905579,0.257627119 105.128755,0.772881356 106.416309,1.80338983 L105.83691,2.57627119 C104.678112,1.61016949 103.454936,1.15932203 102.103004,1.15932203 C100.236052,1.15932203 99.0772532,2.18983051 99.0772532,3.54237288 L99.0772532,3.60677966 C99.0772532,4.95932203 99.7854077,5.73220339 102.746781,6.37627119 C105.643777,6.9559322 106.866953,7.98644068 106.866953,9.78983051 L106.866953,9.85423729 C106.866953,11.9152542 105.128755,13.2677966 102.746781,13.2677966 C100.622318,13.1389831 99.0772532,12.4949153 97.5965665,11.1423729 Z" id="Shape"></path>
                            <g transform="translate(14.163090, 0.000000)" id="Rectangle-path">
                                <rect x="0.386266094" y="5.66779661" width="8.11158798" height="1.99661017"></rect>
                                <rect x="0.386266094" y="0.386440678" width="8.11158798" height="1.99661017"></rect>
                                <rect x="0.386266094" y="10.9491525" width="8.11158798" height="1.99661017"></rect>
                            </g>
                            <path d="M78.9914163,7.6 C81.1158798,7.2779661 82.6609442,6.11864407 82.6609442,4.05762712 L82.6609442,3.99322034 C82.6609442,3.09152542 82.3390558,2.25423729 81.7596567,1.67457627 C80.9871245,0.901694915 79.7639485,0.450847458 78.2832618,0.450847458 L74.0343348,0.450847458 L74.0343348,1.28813559 L78.2188841,1.28813559 C80.472103,1.28813559 81.8240343,2.31864407 81.8240343,4.05762712 L81.8240343,4.1220339 C81.8240343,5.92542373 80.27897,6.9559322 78.1545064,6.9559322 L74.0343348,6.9559322 L74.0343348,7.72881356 L78.0257511,7.72881356 L81.9527897,12.8813559 L83.111588,12.8813559 L78.9914163,7.6 Z" id="Shape"></path>
                        </g>
                    </g>
                </g>
            </g>
        </g>
    </g>
</svg>