<?xml version="1.0" encoding="utf-8"?>
<!-- Generator: Adobe Illustrator 21.0.0, SVG Export Plug-In . SVG Version: 6.00 Build 0)  -->
<svg version="1.1" id="Layer_1" xmlns="http://www.w3.org/2000/svg" xmlns:xlink="http://www.w3.org/1999/xlink" x="0px" y="0px"
	 viewBox="0 0 100 100" style="enable-background:new 0 0 100 100;" xml:space="preserve">
<style type="text/css">
	.st0{fill:#999999;}
</style>
<g>
	<g>
		<path class="st0" d="M58.9,67.4l13.3,28.9c1.5,3.2,6.4,2.2,6.4-1.4V82.7h12.2c3.6,0,4.6-4.9,1.4-6.4L63.3,63
			C60.5,61.7,57.6,64.7,58.9,67.4z"/>
	</g>
	<g>
		<path class="st0" d="M58.6,96.3H21.4c-1.6,0-3.1-1.1-3.6-2.6L0.2,39.3c-0.5-1.6,0-3.3,1.4-4.3L47.8,1.5c1.3-1,3.1-1,4.5,0
			l46.2,33.6c1.3,1,1.9,2.7,1.4,4.3l-8,24.6c-0.6,2-2.8,3.1-4.8,2.4c-2-0.6-3.1-2.8-2.4-4.8l7.2-22L50,9.3L8.3,39.6l15.9,49h34.4
			c2.1,0,3.8,1.7,3.8,3.8C62.4,94.6,60.7,96.3,58.6,96.3z"/>
	</g>
</g>
</svg>
